<svg xmlns="http://www.w3.org/2000/svg" xmlns:xlink="http://www.w3.org/1999/xlink" width="300" zoomAndPan="magnify" viewBox="0 0 224.87999 225" height="300" preserveAspectRatio="xMidYMid meet" version="1.0"><defs><g/></defs><g fill="#ffffff" fill-opacity="1"><g transform="translate(-7.772421, 155.445144)"><g><path d="M 118.328125 -98.390625 C 123.742188 -98.390625 126.453125 -96.175781 126.453125 -91.75 C 126.453125 -90.363281 126.160156 -88.640625 125.578125 -86.578125 L 122.03125 -74.609375 C 120.945312 -70.960938 119.613281 -68.398438 118.03125 -66.921875 C 116.457031 -65.441406 114.195312 -64.703125 111.25 -64.703125 C 108.78125 -64.703125 106.878906 -65.34375 105.546875 -66.625 C 104.222656 -67.90625 102.96875 -69.925781 101.78125 -72.6875 L 99.28125 -78.75 C 98.488281 -80.613281 97.648438 -81.890625 96.765625 -82.578125 C 95.878906 -83.273438 94.5 -83.625 92.625 -83.625 L 89.234375 -83.625 L 70.46875 -17.578125 C 70.175781 -16.296875 70.03125 -15.164062 70.03125 -14.1875 C 70.03125 -13 70.203125 -12.007812 70.546875 -11.21875 C 70.890625 -10.4375 71.40625 -9.601562 72.09375 -8.71875 C 72.976562 -7.332031 73.421875 -6.195312 73.421875 -5.3125 C 73.421875 -5.113281 73.320312 -4.625 73.125 -3.84375 C 72.632812 -2.5625 71.675781 -1.625 70.25 -1.03125 C 68.820312 -0.4375 66.773438 -0.140625 64.109375 -0.140625 L 29.40625 -0.140625 C 27.332031 -0.140625 25.726562 -0.484375 24.59375 -1.171875 C 23.46875 -1.867188 22.90625 -2.859375 22.90625 -4.140625 C 22.90625 -4.722656 23.050781 -5.3125 23.34375 -5.90625 C 23.738281 -6.789062 24.207031 -7.453125 24.75 -7.890625 C 25.289062 -8.335938 26.101562 -8.910156 27.1875 -9.609375 C 28.664062 -10.492188 29.894531 -11.476562 30.875 -12.5625 C 31.863281 -13.644531 32.703125 -15.316406 33.390625 -17.578125 L 52 -83.625 L 48.609375 -83.625 C 46.441406 -83.625 44.664062 -83.273438 43.28125 -82.578125 C 41.90625 -81.890625 40.429688 -80.613281 38.859375 -78.75 L 33.984375 -72.6875 C 31.710938 -70.03125 29.519531 -68.035156 27.40625 -66.703125 C 25.289062 -65.367188 23 -64.703125 20.53125 -64.703125 C 18.269531 -64.703125 16.5 -65.289062 15.21875 -66.46875 C 13.9375 -67.65625 13.296875 -69.285156 13.296875 -71.359375 C 13.296875 -72.335938 13.441406 -73.421875 13.734375 -74.609375 L 17.578125 -88.046875 C 18.367188 -90.804688 19.253906 -92.898438 20.234375 -94.328125 C 21.222656 -95.753906 22.628906 -96.785156 24.453125 -97.421875 C 26.273438 -98.066406 28.859375 -98.390625 32.203125 -98.390625 Z M 118.328125 -98.390625 "/></g></g></g><g fill="#ffffff" fill-opacity="1"><g transform="translate(104.352467, 155.445144)"><g><path d="M 70.765625 -98.390625 C 85.535156 -98.390625 96.660156 -95.554688 104.140625 -89.890625 C 111.628906 -84.234375 115.375 -75.9375 115.375 -65 C 115.375 -59.582031 114.390625 -53.328125 112.421875 -46.234375 C 109.171875 -34.816406 104.785156 -25.757812 99.265625 -19.0625 C 93.753906 -12.363281 86.492188 -7.488281 77.484375 -4.4375 C 68.472656 -1.382812 56.925781 0.09375 42.84375 0 L 2.65625 -0.140625 C 0.59375 -0.140625 -1.003906 -0.484375 -2.140625 -1.171875 C -3.273438 -1.867188 -3.84375 -2.804688 -3.84375 -3.984375 C -3.84375 -4.578125 -3.691406 -5.21875 -3.390625 -5.90625 C -3.097656 -6.789062 -2.679688 -7.429688 -2.140625 -7.828125 C -1.597656 -8.222656 -0.785156 -8.765625 0.296875 -9.453125 C 1.867188 -10.335938 3.125 -11.320312 4.0625 -12.40625 C 5 -13.488281 5.8125 -15.210938 6.5 -17.578125 L 24.53125 -81.109375 C 24.914062 -82.390625 25.109375 -83.617188 25.109375 -84.796875 C 25.109375 -85.878906 24.9375 -86.789062 24.59375 -87.53125 C 24.25 -88.269531 23.78125 -89.132812 23.1875 -90.125 C 22.300781 -91.394531 21.859375 -92.425781 21.859375 -93.21875 C 21.859375 -93.507812 21.957031 -94.050781 22.15625 -94.84375 C 22.550781 -96.125 23.410156 -97.035156 24.734375 -97.578125 C 26.066406 -98.117188 28.113281 -98.390625 30.875 -98.390625 Z M 74.609375 -49.484375 C 77.171875 -58.742188 78.453125 -66.035156 78.453125 -71.359375 C 78.453125 -76.578125 77.367188 -80.171875 75.203125 -82.140625 C 73.035156 -84.109375 69.929688 -85.09375 65.890625 -85.09375 L 62.640625 -85.09375 L 42.6875 -13.296875 L 46.234375 -13.296875 C 50.765625 -13.296875 54.582031 -14.253906 57.6875 -16.171875 C 60.789062 -18.097656 63.671875 -21.644531 66.328125 -26.8125 C 68.992188 -31.976562 71.753906 -39.535156 74.609375 -49.484375 Z M 74.609375 -49.484375 "/></g></g></g></svg>